# xmcd
#
# Track frame offsets: 
#        150
#        17183
#        32733
#        48618
#        68449
#        90893
#        105763
#        121526
#        133536
#        149036
#        168506
#        187916
#        215263
#        228948
#        243546
#        260583
#
# Disc length: 3645 seconds
#
# Revision: 5
# Processed by: cddbd v1.5.1PL0 Copyright (c) Steve Scherf et al.
# Submitted via: ExactAudioCopy v0.95a4
#
DISCID=ce0e3b10
DTITLE=Rebecca Martin - People Behave Like Ballads
DYEAR=2004
DGENRE=Jazz
TTITLE0=Lead Us
TTITLE1=Here The Same But Different
TTITLE2=These Bones Are Yours Alone
TTITLE3=If Only
TTITLE4=I'd Like To Think It's Coming
TTITLE5=It's Only Love
TTITLE6=When The Rain Comes
TTITLE7=It Won't Be Long
TTITLE8=Learning
TTITLE9=East Andover
TTITLE10=Old Familiar Song
TTITLE11=Lonesome Town
TTITLE12=I'm Not Afraid
TTITLE13=Gone Like The Season Does
TTITLE14=I'm The One
TTITLE15=Play For Me
EXTD=
EXTT0=
EXTT1=
EXTT2=
EXTT3=
EXTT4=
EXTT5=
EXTT6=
EXTT7=
EXTT8=
EXTT9=
EXTT10=
EXTT11=
EXTT12=
EXTT13=
EXTT14=
EXTT15=
PLAYORDER=
